<svg width="94" height="26" viewBox="0 0 94 26" fill="none" xmlns="http://www.w3.org/2000/svg">
<path d="M5.64 11.92V9.964C5.64 9.812 5.616 9.712 5.568 9.664C5.52 9.616 5.42 9.592 5.268 9.592H1.848C1.216 9.592 0.9 9.276 0.9 8.644V6.484C0.9 5.852 1.216 5.536 1.848 5.536H5.964C6.596 5.536 6.912 5.852 6.912 6.484V7.72H5.592V6.616C5.592 6.456 5.568 6.356 5.52 6.316C5.472 6.268 5.372 6.244 5.22 6.244H2.592C2.432 6.244 2.328 6.268 2.28 6.316C2.24 6.356 2.22 6.456 2.22 6.616V8.512C2.22 8.672 2.24 8.776 2.28 8.824C2.328 8.864 2.432 8.884 2.592 8.884H6C6.632 8.884 6.948 9.2 6.948 9.832V12.052C6.948 12.684 6.632 13 6 13H1.872C1.24 13 0.924 12.684 0.924 12.052V10.816H2.244V11.92C2.244 12.08 2.264 12.184 2.304 12.232C2.352 12.272 2.456 12.292 2.616 12.292H5.268C5.42 12.292 5.52 12.272 5.568 12.232C5.616 12.184 5.64 12.08 5.64 11.92ZM14.9196 6.484V12.052C14.9196 12.684 14.6036 13 13.9716 13H9.81956C9.18756 13 8.87156 12.684 8.87156 12.052V6.484C8.87156 5.852 9.18756 5.536 9.81956 5.536H13.9716C14.6036 5.536 14.9196 5.852 14.9196 6.484ZM13.6116 11.92V6.616C13.6116 6.456 13.5876 6.356 13.5396 6.316C13.4916 6.268 13.3916 6.244 13.2396 6.244H10.5636C10.4036 6.244 10.2996 6.268 10.2516 6.316C10.2116 6.356 10.1916 6.456 10.1916 6.616V11.92C10.1916 12.08 10.2116 12.184 10.2516 12.232C10.2996 12.272 10.4036 12.292 10.5636 12.292H13.2396C13.3916 12.292 13.4916 12.272 13.5396 12.232C13.5876 12.184 13.6116 12.08 13.6116 11.92ZM18.3855 12.292H22.1775V13H17.0775V5.536H18.3855V12.292Z" fill="#00C4F0"/>
<path d="M36.348 5.536H37.56V13H36.3L32.352 6.964V13H31.14V5.536H32.448L36.348 11.524V5.536ZM41.1676 10.816H44.5036L42.8356 6.388L41.1676 10.816ZM45.3316 13L44.7796 11.524H40.9036L40.3516 13H39.0556L41.9356 5.536H43.7476L46.6396 13H45.3316ZM49.4636 6.244V9.616H52.7516C52.9116 9.616 53.0116 9.592 53.0516 9.544C53.0996 9.496 53.1236 9.396 53.1236 9.244V6.616C53.1236 6.456 53.0996 6.356 53.0516 6.316C53.0116 6.268 52.9116 6.244 52.7516 6.244H49.4636ZM49.4636 10.324V13H48.1556V5.536H53.4836C54.1156 5.536 54.4316 5.852 54.4316 6.484V9.376C54.4316 10.008 54.1156 10.324 53.4836 10.324H52.7996L54.4916 13H53.1236L51.4796 10.324H49.4636Z" fill="#00C4F0"/>
<path d="M29 7.15916V19.8408C29 21.2803 28.6742 22 28.0227 22H23.9773C23.3258 22 23 21.2803 23 19.8408V7.15916C23 5.71972 23.3258 5 23.9773 5H28.0227C28.6742 5 29 5.71972 29 7.15916ZM27.9361 19.5402V7.45981C27.9361 7.09539 27.9113 6.86763 27.8619 6.77653C27.8206 6.6672 27.7175 6.61254 27.5526 6.61254H24.4598C24.2948 6.61254 24.1876 6.6672 24.1381 6.77653C24.0969 6.86763 24.0763 7.09539 24.0763 7.45981V19.5402C24.0763 19.9046 24.0969 20.1415 24.1381 20.2508C24.1876 20.3419 24.2948 20.3875 24.4598 20.3875H27.5526C27.7175 20.3875 27.8206 20.3419 27.8619 20.2508C27.9113 20.1415 27.9361 19.9046 27.9361 19.5402Z" fill="#00C4F0"/>
<path d="M32.448 21.292H36.24V22H31.14V14.536H32.448V21.292ZM39.0465 21.292H43.1385V22H37.7025V14.536H42.9705V15.244H39.0465V17.824H42.4785V18.532H39.0465V21.292ZM49.8915 14.536H51.4395L47.9235 18.184L51.5835 22H49.9995L46.3995 18.184L49.8915 14.536ZM44.8275 14.536H46.1115V22H44.8275V14.536ZM57.472 20.92V18.964C57.472 18.812 57.448 18.712 57.4 18.664C57.352 18.616 57.252 18.592 57.1 18.592H53.68C53.048 18.592 52.732 18.276 52.732 17.644V15.484C52.732 14.852 53.048 14.536 53.68 14.536H57.796C58.428 14.536 58.744 14.852 58.744 15.484V16.72H57.424V15.616C57.424 15.456 57.4 15.356 57.352 15.316C57.304 15.268 57.204 15.244 57.052 15.244H54.424C54.264 15.244 54.16 15.268 54.112 15.316C54.072 15.356 54.052 15.456 54.052 15.616V17.512C54.052 17.672 54.072 17.776 54.112 17.824C54.16 17.864 54.264 17.884 54.424 17.884H57.832C58.464 17.884 58.78 18.2 58.78 18.832V21.052C58.78 21.684 58.464 22 57.832 22H53.704C53.072 22 52.756 21.684 52.756 21.052V19.816H54.076V20.92C54.076 21.08 54.096 21.184 54.136 21.232C54.184 21.272 54.288 21.292 54.448 21.292H57.1C57.252 21.292 57.352 21.272 57.4 21.232C57.448 21.184 57.472 21.08 57.472 20.92ZM62.1676 19.816H65.5036L63.8356 15.388L62.1676 19.816ZM66.3316 22L65.7796 20.524H61.9036L61.3516 22H60.0556L62.9356 14.536H64.7476L67.6396 22H66.3316ZM74.3636 14.536H75.5756V22H74.3156L70.3676 15.964V22H69.1556V14.536H70.4636L74.3636 20.524V14.536ZM82.7592 20.92V15.616C82.7592 15.456 82.7352 15.356 82.6872 15.316C82.6472 15.268 82.5472 15.244 82.3872 15.244H79.1592V21.292H82.3872C82.5472 21.292 82.6472 21.272 82.6872 21.232C82.7352 21.184 82.7592 21.08 82.7592 20.92ZM77.8392 14.536H83.1432C83.7752 14.536 84.0912 14.852 84.0912 15.484V21.052C84.0912 21.684 83.7752 22 83.1432 22H77.8392V14.536ZM87.5613 15.244V18.616H90.8493C91.0093 18.616 91.1093 18.592 91.1493 18.544C91.1973 18.496 91.2213 18.396 91.2213 18.244V15.616C91.2213 15.456 91.1973 15.356 91.1493 15.316C91.1093 15.268 91.0093 15.244 90.8493 15.244H87.5613ZM87.5613 19.324V22H86.2533V14.536H91.5813C92.2133 14.536 92.5293 14.852 92.5293 15.484V18.376C92.5293 19.008 92.2133 19.324 91.5813 19.324H90.8973L92.5893 22H91.2213L89.5773 19.324H87.5613Z" fill="#00C4F0"/>
</svg>
