<svg aria-hidden="true" style="position: absolute; width: 0; height: 0; overflow: hidden;" version="1.1" xmlns="http://www.w3.org/2000/svg" xmlns:xlink="http://www.w3.org/1999/xlink">
<defs>
<symbol id="icon-logo" viewBox="0 0 116 32">
<path d="M6.942 14.671v-2.407c0-0.187-0.030-0.31-0.089-0.369s-0.182-0.089-0.369-0.089h-4.209c-0.778 0-1.167-0.389-1.167-1.167v-2.658c0-0.778 0.389-1.167 1.167-1.167h5.066c0.778 0 1.167 0.389 1.167 1.167v1.521h-1.625v-1.359c0-0.197-0.030-0.32-0.089-0.369-0.059-0.059-0.182-0.089-0.369-0.089h-3.234c-0.197 0-0.325 0.030-0.384 0.089-0.049 0.049-0.074 0.172-0.074 0.369v2.334c0 0.197 0.025 0.325 0.074 0.384 0.059 0.049 0.187 0.074 0.384 0.074h4.194c0.778 0 1.167 0.389 1.167 1.167v2.732c0 0.778-0.389 1.167-1.167 1.167h-5.081c-0.778 0-1.167-0.389-1.167-1.167v-1.521h1.625v1.359c0 0.197 0.025 0.325 0.074 0.384 0.059 0.049 0.187 0.074 0.384 0.074h3.264c0.187 0 0.31-0.025 0.369-0.074 0.059-0.059 0.089-0.187 0.089-0.384zM18.363 7.98v6.853c0 0.778-0.389 1.167-1.167 1.167h-5.11c-0.778 0-1.167-0.389-1.167-1.167v-6.853c0-0.778 0.389-1.167 1.167-1.167h5.11c0.778 0 1.167 0.389 1.167 1.167zM16.753 14.671v-6.528c0-0.197-0.030-0.32-0.089-0.369-0.059-0.059-0.182-0.089-0.369-0.089h-3.294c-0.197 0-0.325 0.030-0.384 0.089-0.049 0.049-0.074 0.172-0.074 0.369v6.528c0 0.197 0.025 0.325 0.074 0.384 0.059 0.049 0.187 0.074 0.384 0.074h3.294c0.187 0 0.31-0.025 0.369-0.074 0.059-0.059 0.089-0.187 0.089-0.384zM22.628 15.129h4.667v0.871h-6.277v-9.186h1.61v8.315z"></path>
<path d="M44.736 6.814h1.492v9.186h-1.551l-4.859-7.429v7.429h-1.492v-9.186h1.61l4.8 7.37v-7.37zM50.668 13.312h4.106l-2.053-5.45-2.053 5.45zM55.793 16l-0.679-1.817h-4.77l-0.679 1.817h-1.595l3.545-9.186h2.23l3.559 9.186h-1.61zM60.878 7.685v4.15h4.047c0.197 0 0.32-0.030 0.369-0.089 0.059-0.059 0.089-0.182 0.089-0.369v-3.234c0-0.197-0.030-0.32-0.089-0.369-0.049-0.059-0.172-0.089-0.369-0.089h-4.047zM60.878 12.706v3.294h-1.61v-9.186h6.558c0.778 0 1.167 0.389 1.167 1.167v3.559c0 0.778-0.389 1.167-1.167 1.167h-0.842l2.082 3.294h-1.684l-2.023-3.294h-2.481z"></path>
<path d="M35.692 8.811v15.608c0 1.772-0.401 2.657-1.203 2.657h-4.979c-0.802 0-1.203-0.886-1.203-2.657v-15.608c0-1.772 0.401-2.657 1.203-2.657h4.979c0.802 0 1.203 0.886 1.203 2.657zM34.383 24.049v-14.868c0-0.449-0.031-0.729-0.091-0.841-0.051-0.135-0.178-0.202-0.381-0.202h-3.807c-0.203 0-0.335 0.067-0.396 0.202-0.051 0.112-0.076 0.392-0.076 0.841v14.868c0 0.448 0.025 0.74 0.076 0.875 0.061 0.112 0.193 0.168 0.396 0.168h3.807c0.203 0 0.33-0.056 0.381-0.168 0.061-0.135 0.091-0.426 0.091-0.875z"></path>
<path d="M39.936 26.206h4.667v0.871h-6.277v-9.186h1.61v8.315zM48.057 26.206h5.036v0.871h-6.69v-9.186h6.484v0.871h-4.83v3.175h4.224v0.871h-4.224v3.397zM61.405 17.89h1.905l-4.327 4.49 4.505 4.697h-1.95l-4.431-4.697 4.298-4.49zM55.172 17.89h1.58v9.186h-1.58v-9.186zM70.735 25.748v-2.407c0-0.187-0.030-0.31-0.089-0.369s-0.182-0.089-0.369-0.089h-4.209c-0.778 0-1.167-0.389-1.167-1.167v-2.658c0-0.778 0.389-1.167 1.167-1.167h5.066c0.778 0 1.167 0.389 1.167 1.167v1.521h-1.625v-1.359c0-0.197-0.030-0.32-0.089-0.369-0.059-0.059-0.182-0.089-0.369-0.089h-3.234c-0.197 0-0.325 0.030-0.384 0.089-0.049 0.049-0.074 0.172-0.074 0.369v2.334c0 0.197 0.025 0.325 0.074 0.384 0.059 0.049 0.187 0.074 0.384 0.074h4.194c0.778 0 1.167 0.389 1.167 1.167v2.732c0 0.778-0.389 1.167-1.167 1.167h-5.081c-0.778 0-1.167-0.389-1.167-1.167v-1.521h1.625v1.359c0 0.197 0.025 0.325 0.074 0.384 0.059 0.049 0.187 0.074 0.384 0.074h3.264c0.187 0 0.31-0.025 0.369-0.074 0.059-0.059 0.089-0.187 0.089-0.384zM76.514 24.389h4.106l-2.053-5.45-2.053 5.45zM81.639 27.077l-0.679-1.817h-4.77l-0.679 1.817h-1.595l3.545-9.186h2.23l3.559 9.186h-1.61zM91.524 17.89h1.492v9.186h-1.551l-4.859-7.429v7.429h-1.492v-9.186h1.61l4.8 7.37v-7.37zM101.857 25.748v-6.528c0-0.197-0.030-0.32-0.089-0.369-0.049-0.059-0.172-0.089-0.369-0.089h-3.973v7.444h3.973c0.197 0 0.32-0.025 0.369-0.074 0.059-0.059 0.089-0.187 0.089-0.384zM95.802 17.89h6.528c0.778 0 1.167 0.389 1.167 1.167v6.853c0 0.778-0.389 1.167-1.167 1.167h-6.528v-9.186zM107.768 18.762v4.15h4.047c0.197 0 0.32-0.030 0.369-0.089 0.059-0.059 0.089-0.182 0.089-0.369v-3.234c0-0.197-0.030-0.32-0.089-0.369-0.049-0.059-0.172-0.089-0.369-0.089h-4.047zM107.768 23.783v3.294h-1.61v-9.186h6.558c0.778 0 1.167 0.389 1.167 1.167v3.559c0 0.778-0.389 1.167-1.167 1.167h-0.842l2.082 3.294h-1.684l-2.023-3.294h-2.481z"></path>
</symbol>
<symbol id="icon-moon" viewBox="0 0 32 32">
<path d="M16 29.333c7.364 0 13.333-5.97 13.333-13.333 0-0.617-0.925-0.719-1.244-0.191-1.518 2.512-4.274 4.191-7.423 4.191-4.787 0-8.667-3.88-8.667-8.667 0-3.149 1.679-5.905 4.191-7.423 0.528-0.319 0.426-1.244-0.191-1.244-7.364 0-13.333 5.97-13.333 13.333s5.97 13.333 13.333 13.333z"></path>
</symbol>
<symbol id="icon-sun" viewBox="0 0 32 32">
<path d="M16 26c1.105 0 2 0.895 2 2v2c0 1.105-0.895 2-2 2s-2-0.895-2-2v-2c0-1.105 0.895-2 2-2zM16 6c-1.105 0-2-0.895-2-2v-2c0-1.105 0.895-2 2-2s2 0.895 2 2v2c0 1.105-0.895 2-2 2zM30 14c1.105 0 2 0.895 2 2s-0.895 2-2 2h-2c-1.105 0-2-0.895-2-2s0.895-2 2-2h2zM6 16c0 1.105-0.895 2-2 2h-2c-1.105 0-2-0.895-2-2s0.895-2 2-2h2c1.105 0 2 0.895 2 2zM25.899 23.071l1.414 1.414c0.781 0.781 0.781 2.047 0 2.828s-2.047 0.781-2.828 0l-1.414-1.414c-0.781-0.781-0.781-2.047 0-2.828s2.047-0.781 2.828 0zM6.101 8.929l-1.414-1.414c-0.781-0.781-0.781-2.047 0-2.828s2.047-0.781 2.828 0l1.414 1.414c0.781 0.781 0.781 2.047 0 2.828s-2.047 0.781-2.828 0zM25.899 8.929c-0.781 0.781-2.047 0.781-2.828 0s-0.781-2.047 0-2.828l1.414-1.414c0.781-0.781 2.047-0.781 2.828 0s0.781 2.047 0 2.828l-1.414 1.414zM6.101 23.071c0.781-0.781 2.047-0.781 2.828 0s0.781 2.047 0 2.828l-1.414 1.414c-0.781 0.781-2.047 0.781-2.828 0s-0.781-2.047 0-2.828l1.414-1.414z"></path>
<path d="M16 8c-4.418 0-8 3.582-8 8s3.582 8 8 8c4.418 0 8-3.582 8-8s-3.582-8-8-8zM16 21c-2.761 0-5-2.239-5-5s2.239-5 5-5 5 2.239 5 5-2.239 5-5 5z"></path>
</symbol>
<symbol id="icon-menu" viewBox="0 0 32 32">
<path d="M6.4 11.734v-2.134h19.2v2.134h-19.2zM6.4 17.066h19.2v-2.133h-19.2v2.133zM6.4 22.4h19.2v-2.134h-19.2v2.134z"></path>
</symbol>
<symbol id="icon-react" viewBox="0 0 32 32">
<path d="M22.115 2.55c-0.499-0.017-1.021 0.070-1.545 0.24-1.047 0.34-2.145 1.001-3.271 1.917-0.441 0.359-0.887 0.769-1.334 1.205-0.437-0.424-0.873-0.825-1.305-1.176-1.125-0.915-2.22-1.576-3.265-1.915s-2.085-0.349-2.939 0.144c-0.854 0.493-1.365 1.398-1.594 2.473s-0.205 2.354 0.025 3.786c0.080 0.498 0.195 1.020 0.325 1.551-0.488 0.148-0.962 0.303-1.401 0.475-1.326 0.518-2.423 1.138-3.223 1.875s-1.315 1.632-1.315 2.615c0 0.983 0.516 1.876 1.315 2.614s1.896 1.358 3.223 1.876c0.47 0.184 0.979 0.349 1.504 0.505-0.189 0.706-0.342 1.391-0.446 2.040-0.23 1.434-0.255 2.713-0.025 3.79s0.741 1.987 1.599 2.482c0.858 0.495 1.903 0.483 2.95 0.144s2.144-1 3.27-1.916c0.437-0.356 0.88-0.762 1.322-1.192 0.445 0.433 0.889 0.841 1.329 1.199 1.125 0.915 2.221 1.576 3.266 1.915s2.084 0.349 2.938-0.144c0.854-0.493 1.365-1.398 1.594-2.473s0.204-2.354-0.026-3.786c-0.105-0.651-0.258-1.337-0.448-2.045 0.543-0.16 1.067-0.33 1.551-0.519 1.326-0.518 2.423-1.139 3.223-1.876s1.315-1.631 1.315-2.614c0-0.983-0.516-1.878-1.315-2.615s-1.896-1.357-3.223-1.875c-0.446-0.174-0.927-0.332-1.422-0.481 0.131-0.535 0.247-1.061 0.328-1.561 0.23-1.434 0.255-2.714 0.025-3.791s-0.742-1.986-1.6-2.481c-0.429-0.248-0.905-0.368-1.404-0.385zM22.056 3.853c0.313 0.009 0.58 0.083 0.809 0.215 0.457 0.264 0.795 0.777 0.975 1.622s0.174 1.987-0.039 3.311c-0.073 0.453-0.179 0.934-0.299 1.426-1.309-0.315-2.743-0.549-4.271-0.686-0.768-1.064-1.557-2.032-2.352-2.891 0.421-0.411 0.838-0.795 1.246-1.126 1.040-0.846 2.025-1.422 2.848-1.689 0.411-0.133 0.771-0.191 1.084-0.183zM9.911 3.856c0.315-0.009 0.675 0.049 1.088 0.183 0.824 0.267 1.811 0.843 2.852 1.69 0.4 0.325 0.808 0.701 1.22 1.101-0.801 0.867-1.596 1.844-2.369 2.918-1.523 0.14-2.952 0.376-4.255 0.693-0.119-0.49-0.224-0.969-0.296-1.42-0.213-1.325-0.218-2.469-0.037-3.316s0.521-1.364 0.982-1.63c0.231-0.133 0.5-0.209 0.815-0.217zM15.985 7.771c0.521 0.567 1.043 1.188 1.56 1.856-0.508-0.021-1.023-0.034-1.545-0.034-0.533 0-1.057 0.013-1.575 0.035 0.517-0.669 1.039-1.29 1.56-1.857zM16 10.886c0.87 0 1.719 0.036 2.544 0.096 0.568 0.815 1.123 1.681 1.651 2.596 0.465 0.805 0.885 1.608 1.267 2.401-0.387 0.804-0.814 1.618-1.285 2.434-0.415 0.718-0.847 1.4-1.288 2.058-0.932 0.078-1.898 0.121-2.89 0.121-1.016 0-2.004-0.046-2.956-0.128-0.433-0.648-0.858-1.321-1.266-2.027-0.47-0.814-0.895-1.625-1.281-2.428 0.388-0.807 0.815-1.624 1.287-2.442 0.526-0.911 1.079-1.771 1.644-2.582 0.834-0.062 1.692-0.099 2.572-0.099zM20.192 11.143c1.055 0.132 2.045 0.315 2.966 0.534-0.274 0.897-0.611 1.833-1.019 2.8-0.265-0.511-0.54-1.024-0.836-1.537-0.359-0.622-0.733-1.217-1.111-1.796zM11.74 11.152c-0.371 0.569-0.735 1.151-1.088 1.761-0.3 0.52-0.581 1.040-0.849 1.558-0.405-0.961-0.74-1.892-1.011-2.784 0.915-0.22 1.9-0.402 2.947-0.535zM24.425 12.016c0.454 0.137 0.892 0.281 1.294 0.438 1.223 0.477 2.189 1.043 2.816 1.621s0.899 1.13 0.899 1.665c0 0.535-0.272 1.087-0.899 1.665s-1.594 1.144-2.816 1.621c-0.447 0.174-0.937 0.333-1.448 0.483-0.364-1.126-0.828-2.3-1.381-3.499 0.636-1.376 1.149-2.718 1.535-3.994zM7.554 12.023c0.381 1.263 0.888 2.591 1.515 3.954-0.556 1.206-1.023 2.387-1.389 3.519-0.492-0.146-0.966-0.3-1.399-0.469-1.223-0.477-2.189-1.043-2.816-1.621s-0.899-1.13-0.899-1.665c0-0.535 0.272-1.087 0.899-1.665s1.594-1.144 2.816-1.621c0.396-0.155 0.827-0.296 1.272-0.431zM16 12.8c-1.76 0-3.2 1.44-3.2 3.2s1.44 3.2 3.2 3.2c1.76 0 3.2-1.44 3.2-3.2s-1.44-3.2-3.2-3.2zM16 14.080c1.068 0 1.92 0.852 1.92 1.92s-0.852 1.92-1.92 1.92c-1.068 0-1.92-0.852-1.92-1.92s0.852-1.92 1.92-1.92zM22.156 17.512c0.336 0.794 0.627 1.572 0.872 2.321-0.77 0.178-1.589 0.329-2.451 0.448 0.248-0.396 0.493-0.799 0.733-1.214 0.3-0.52 0.579-1.038 0.846-1.555zM9.819 17.514c0.269 0.52 0.549 1.041 0.851 1.564 0.236 0.409 0.478 0.809 0.723 1.2-0.86-0.119-1.677-0.27-2.444-0.449 0.244-0.747 0.536-1.523 0.87-2.315zM8.58 21.071c1.158 0.274 2.414 0.485 3.745 0.622 0.889 1.286 1.814 2.44 2.746 3.45-0.417 0.406-0.83 0.788-1.234 1.116-1.040 0.846-2.027 1.421-2.849 1.688s-1.435 0.231-1.893-0.032c-0.457-0.264-0.794-0.777-0.974-1.622s-0.175-1.986 0.037-3.31c0.097-0.601 0.241-1.244 0.42-1.911zM23.399 21.076c0.181 0.671 0.325 1.317 0.422 1.921 0.213 1.325 0.218 2.467 0.038 3.315s-0.52 1.365-0.981 1.631c-0.461 0.266-1.079 0.302-1.904 0.035s-1.811-0.844-2.852-1.691c-0.407-0.331-0.823-0.714-1.242-1.124 0.938-1.014 1.87-2.174 2.765-3.468 1.335-0.136 2.594-0.346 3.755-0.62zM13.995 21.825c0.657 0.036 1.323 0.060 2.005 0.060 0.66 0 1.304-0.023 1.94-0.056-0.65 0.878-1.313 1.675-1.974 2.394-0.66-0.72-1.322-1.519-1.971-2.398z"></path>
</symbol>
<symbol id="icon-html" viewBox="0 0 32 32">
<path d="M1.892 0l2.567 28.801 11.524 3.199 11.554-3.204 2.572-28.796h-28.216zM25.336 26.963l-9.288 2.574v0.015l-0.024-0.007-0.024 0.007v-0.015l-9.288-2.574-2.195-24.609h23.015l-2.195 24.609zM20.336 16.569l-0.408 4.58-3.944 1.065-3.933-1.060-0.252-2.82h-3.547l0.495 5.547 7.252 2.006 7.229-2.006 0.97-10.844h-12.874l-0.322-3.617h13.517l0.316-3.532h-17.694l0.953 10.681z"></path>
</symbol>
<symbol id="icon-css" viewBox="0 0 32 32">
<path d="M4.762 1.516l-1.074 5.373h21.867l-0.684 3.47h-21.881l-1.059 5.372h21.865l-1.219 6.127-8.813 2.919-7.638-2.919 0.523-2.658h-5.372l-1.278 6.448 12.632 4.834 14.563-4.834 4.805-24.133z"></path>
</symbol>
<symbol id="icon-javascript" viewBox="0 0 32 32">
<path d="M13 5.5h-5v13.281c0 3.286-1.127 4.204-3.088 4.204-0.919 0-1.747-0.158-2.391-0.379l-0.521 3.888c0.919 0.316 2.329 0.506 3.432 0.506 4.503 0 7.568-2.117 7.568-8.186v-13.314zM23.904 5c-4.84 0-7.904 2.75-7.904 6.385 0 3.13 2.359 5.090 5.79 6.354 2.481 0.885 3.462 1.675 3.462 2.971 0 1.422-1.134 2.339-3.278 2.339-1.991 0-3.799-0.665-5.025-1.328v-0.001l-0.949 3.951c1.165 0.665 3.34 1.328 5.698 1.328 5.668-0 8.302-3.035 8.302-6.606 0-3.034-1.685-4.994-5.33-6.385-2.696-1.074-3.829-1.675-3.829-3.034 0-1.075 0.98-2.054 3.003-2.054 1.99 0 3.359 0.669 4.157 1.081l1.195-4c-1.25-0.549-2.934-1-5.291-1z"></path>
</symbol>
<symbol id="icon-redux" viewBox="0 0 32 32">
<path d="M15.36 1.28c-4.588 0-8.32 5.307-8.32 11.831 0 3.37 1.002 6.405 2.599 8.559-0.024 0.123-0.038 0.265-0.038 0.41 0 1.237 1.002 2.239 2.239 2.24h0c1.237 0 2.24-1.003 2.24-2.24s-1.003-2.24-2.24-2.24v0c-0.129 0.001-0.255 0.013-0.377 0.035l0.014-0.002c-1.144-1.705-1.876-4.121-1.876-6.761 0-5.026 2.638-9.271 5.76-9.271 2.636 0 4.921 3.032 5.57 7 0.91 0.261 1.817 0.614 2.705 1.041-0.434-5.948-3.979-10.601-8.275-10.601zM14.4 10.88c-1.237 0-2.24 1.003-2.24 2.24s1.003 2.24 2.24 2.24v0c0.878-0 1.637-0.506 2.004-1.241l0.006-0.013c2.080-0.13 4.483 0.511 6.703 1.841 4.39 2.632 6.778 7.235 5.213 10.051-0.515 0.925-1.442 1.591-2.681 1.922-1.785 0.477-3.974 0.235-6.13-0.633-0.684 0.636-1.436 1.233-2.258 1.782 2.13 1.076 4.382 1.646 6.464 1.646 0.902 0 1.773-0.106 2.586-0.324 1.924-0.515 3.397-1.605 4.256-3.151 2.294-4.127-0.401-10.053-6.134-13.49-2.728-1.636-5.75-2.39-8.406-2.172-0.408-0.431-0.984-0.699-1.622-0.7h-0zM5.862 14.928c-4.532 3.501-6.476 8.624-4.424 12.315 0.86 1.546 2.332 2.636 4.256 3.151 0.813 0.218 1.683 0.324 2.586 0.324 2.432 0 5.101-0.772 7.531-2.229 2.719-1.63 4.729-3.821 5.869-6.113 1.121-0.122 1.999-1.064 1.999-2.216 0-1.235-1.005-2.24-2.24-2.24s-2.24 1.005-2.24 2.24c0 0.346 0.085 0.67 0.225 0.962-0.924 1.904-2.648 3.803-4.929 5.17-2.749 1.649-5.792 2.258-8.14 1.629-1.239-0.332-2.165-0.997-2.68-1.922-1.238-2.227 0.001-5.568 2.743-8.171-0.263-0.922-0.451-1.892-0.556-2.9z"></path>
</symbol>
<symbol id="icon-typescript" viewBox="0 0 32 32">
<path d="M29.056 29.056h-26.112v-26.112h26.112zM4.224 4.224v23.552h23.552v-23.552z"></path>
<path d="M22.387 15.222c-0.15-0-0.288 0.003-0.391 0.013-0.806 0.070-1.559 0.422-2.074 0.97-0.258 0.274-0.492 0.668-0.606 1.020-0.126 0.388-0.125 0.381-0.124 0.989 0.001 0.777 0.040 0.969 0.304 1.486 0.266 0.52 0.671 0.944 1.255 1.315 0.256 0.163 0.912 0.49 1.447 0.722 1.166 0.505 1.534 0.738 1.705 1.077l0.071 0.14v0.294c0 0.283-0.001 0.298-0.059 0.415-0.131 0.27-0.442 0.492-0.839 0.599-0.15 0.040-0.219 0.046-0.555 0.046-0.329 0-0.409-0.007-0.559-0.044-0.263-0.067-0.485-0.159-0.658-0.273-0.212-0.14-0.629-0.562-0.799-0.807-0.075-0.108-0.15-0.197-0.167-0.197-0.028 0-1.466 0.822-1.717 0.982-0.085 0.054-0.106 0.078-0.106 0.121 0 0.089 0.336 0.597 0.599 0.906 0.536 0.629 1.612 1.183 2.564 1.322 0.377 0.055 1.002 0.073 1.439 0.040 0.286-0.021 0.576-0.075 0.887-0.167 1.125-0.33 1.893-1.031 2.177-1.989 0.116-0.391 0.163-0.871 0.125-1.276-0.079-0.832-0.334-1.42-0.839-1.929-0.469-0.473-1.112-0.854-2.381-1.411-1.101-0.483-1.388-0.67-1.547-1.009-0.137-0.293-0.111-0.695 0.061-0.946 0.202-0.293 0.613-0.438 1.072-0.377 0.427 0.056 0.703 0.225 0.973 0.596 0.14 0.192 0.238 0.293 0.285 0.293s0.245-0.122 0.861-0.532c0.627-0.416 0.825-0.558 0.838-0.6 0.021-0.066-0.077-0.22-0.365-0.573-0.577-0.708-1.256-1.084-2.128-1.179-0.214-0.023-0.499-0.036-0.749-0.037zM15.453 15.343c-0.517-0-1.109 0-1.765 0.001-3.406 0.003-4.197 0.009-4.218 0.031-0.021 0.021-0.026 0.23-0.026 1.009v0.983l3.098 0.011 0 4.384c0 2.411 0.006 4.405 0.013 4.43l0.012 0.046h1.126c1.008 0 1.127-0.002 1.138-0.032 0.007-0.018 0.012-2.011 0.012-4.43v-4.398l3.098-0.011v-0.995c0-0.862-0.003-0.997-0.030-1.014-0.014-0.009-0.904-0.014-2.457-0.015z"></path>
</symbol>
<symbol id="icon-sass" viewBox="0 0 32 32">
<path d="M27.539 17.793c-1.118 0.006-2.087 0.275-2.899 0.675-0.297-0.593-0.598-1.114-0.648-1.502-0.059-0.452-0.127-0.723-0.056-1.262s0.383-1.303 0.378-1.36c-0.004-0.057-0.070-0.332-0.715-0.337s-1.197 0.124-1.262 0.294-0.189 0.554-0.266 0.954c-0.113 0.585-1.288 2.671-1.955 3.763-0.218-0.426-0.404-0.801-0.442-1.098-0.059-0.452-0.127-0.723-0.056-1.262s0.383-1.303 0.378-1.36c-0.004-0.057-0.070-0.332-0.715-0.337s-1.197 0.124-1.262 0.294-0.134 0.568-0.266 0.954c-0.132 0.385-1.694 3.865-2.103 4.767-0.209 0.46-0.39 0.829-0.518 1.081-0.001-0.001-0.001-0.001-0.001-0.001s-0.008 0.017-0.022 0.045c-0.109 0.214-0.175 0.333-0.175 0.333s0.001 0.002 0.002 0.004c-0.087 0.157-0.18 0.304-0.226 0.304-0.032 0-0.097-0.42 0.014-0.995 0.232-1.207 0.79-3.090 0.785-3.155-0.003-0.033 0.104-0.361-0.365-0.533-0.455-0.166-0.618 0.111-0.659 0.112-0.040 0.001-0.070 0.098-0.070 0.098s0.508-2.117-0.968-2.117c-0.922 0-2.199 1.009-2.829 1.923-0.397 0.216-1.247 0.68-2.148 1.176-0.346 0.19-0.7 0.385-1.035 0.57-0.023-0.025-0.045-0.051-0.069-0.076-1.788-1.908-5.093-3.257-4.953-5.821 0.051-0.932 0.375-3.388 6.351-6.365 4.895-2.44 8.815-1.768 9.492-0.28 0.968 2.125-2.095 6.076-7.178 6.646-1.937 0.217-2.957-0.534-3.211-0.813-0.267-0.294-0.307-0.308-0.406-0.252-0.163 0.090-0.060 0.35 0 0.505 0.152 0.395 0.774 1.096 1.837 1.444 0.934 0.307 3.208 0.475 5.959-0.589 3.080-1.192 5.485-4.506 4.78-7.277-0.719-2.818-5.391-3.744-9.812-2.173-2.632 0.935-5.48 2.403-7.529 4.318-2.436 2.278-2.824 4.261-2.664 5.089 0.569 2.944 4.626 4.861 6.251 6.282-0.080 0.044-0.156 0.086-0.224 0.124-0.815 0.403-3.907 2.022-4.681 3.732-0.877 1.94 0.14 3.332 0.813 3.519 2.086 0.58 4.228-0.464 5.379-2.18s1.010-3.95 0.482-4.97c-0.006-0.013-0.014-0.025-0.020-0.038 0.211-0.125 0.425-0.251 0.637-0.376 0.415-0.243 0.822-0.47 1.175-0.663-0.198 0.541-0.342 1.19-0.418 2.128-0.088 1.101 0.363 2.525 0.954 3.085 0.26 0.246 0.573 0.252 0.771 0.252 0.687 0 1.001-0.572 1.346-1.248 0.424-0.829 0.799-1.795 0.799-1.795s-0.472 2.608 0.813 2.608c0.468 0 0.939-0.607 1.149-0.916 0.001 0.003 0.001 0.005 0.001 0.005s0.012-0.020 0.036-0.061c0.049-0.074 0.076-0.122 0.076-0.122s0.001-0.005 0.003-0.013c0.188-0.326 0.605-1.071 1.231-2.3 0.808-1.587 1.584-3.575 1.584-3.575s0.072 0.486 0.308 1.29c0.139 0.473 0.435 0.996 0.668 1.497-0.188 0.26-0.303 0.41-0.303 0.41s0.001 0.003 0.003 0.008c-0.15 0.199-0.318 0.413-0.494 0.623-0.638 0.76-1.398 1.628-1.5 1.879-0.12 0.295-0.092 0.513 0.14 0.687 0.169 0.127 0.47 0.147 0.785 0.126 0.573-0.038 0.977-0.181 1.176-0.268 0.31-0.109 0.672-0.282 1.011-0.532 0.626-0.46 1.004-1.119 0.968-1.991-0.020-0.481-0.173-0.957-0.367-1.407 0.057-0.082 0.114-0.164 0.171-0.248 0.987-1.443 1.752-3.028 1.752-3.028s0.072 0.486 0.308 1.29c0.12 0.407 0.356 0.851 0.568 1.286-0.928 0.754-1.503 1.63-1.704 2.205-0.369 1.063-0.080 1.545 0.463 1.654 0.246 0.050 0.593-0.063 0.854-0.173 0.325-0.108 0.716-0.287 1.080-0.556 0.626-0.46 1.228-1.105 1.192-1.977-0.017-0.397-0.124-0.791-0.27-1.17 0.787-0.328 1.805-0.51 3.103-0.358 2.783 0.325 3.329 2.063 3.225 2.79s-0.688 1.127-0.883 1.248-0.255 0.163-0.238 0.252c0.024 0.131 0.114 0.125 0.28 0.097 0.229-0.038 1.461-0.591 1.514-1.934 0.067-1.701-1.567-3.573-4.46-3.558zM6.088 25.025c-0.922 1.005-2.21 1.386-2.762 1.066-0.596-0.346-0.36-1.827 0.771-2.893 0.689-0.65 1.58-1.249 2.17-1.619 0.134-0.081 0.332-0.2 0.572-0.344 0.040-0.022 0.062-0.035 0.062-0.035l-0.001-0.001c0.046-0.028 0.094-0.056 0.143-0.086 0.412 1.519 0.013 2.857-0.955 3.912zM12.803 20.46c-0.321 0.783-0.993 2.785-1.402 2.678-0.351-0.092-0.565-1.615-0.070-3.112 0.249-0.754 0.781-1.655 1.094-2.005 0.503-0.563 1.057-0.747 1.192-0.518 0.172 0.291-0.611 2.467-0.813 2.958zM18.352 23.107c-0.136 0.071-0.261 0.116-0.319 0.081-0.043-0.026 0.056-0.119 0.056-0.119s0.694-0.747 0.968-1.087c0.159-0.198 0.344-0.433 0.544-0.695 0.002 0.026 0.003 0.052 0.003 0.078-0.003 0.895-0.867 1.498-1.252 1.741zM22.627 22.132c-0.102-0.072-0.084-0.306 0.249-1.033 0.131-0.285 0.43-0.767 0.95-1.226 0.060 0.189 0.097 0.37 0.096 0.539-0.007 1.126-0.81 1.546-1.295 1.72z"></path>
</symbol>
<symbol id="icon-webpack" viewBox="0 0 32 32">
<path d="M15.982 1.001c-0.005 0-0.010 0.002-0.016 0.002-0.013 0.001-0.025 0.005-0.038 0.007-0.049 0.007-0.096 0.021-0.142 0.043-0.008 0.004-0.017 0.003-0.024 0.007l-13 7c-0.042 0.023-0.078 0.051-0.111 0.083-0.007 0.007-0.011 0.015-0.018 0.022-0.033 0.036-0.059 0.076-0.080 0.119-0.007 0.015-0.014 0.029-0.020 0.044-0.020 0.054-0.034 0.11-0.034 0.17 0 0 0 0.001 0 0.001s0 0.001 0 0.001v15c0 0.044 0.006 0.088 0.018 0.13 0.015 0.056 0.042 0.106 0.074 0.153 0.008 0.011 0.016 0.021 0.024 0.031 0.036 0.044 0.078 0.085 0.129 0.115 0.001 0.001 0.002 0 0.003 0.001s0.001 0.001 0.002 0.002l12.994 7.497c0.001 0 0.001 0.001 0.002 0.001s0.001 0.001 0.002 0.001l0.002 0.001c0.023 0.013 0.047 0.020 0.070 0.029 0.017 0.006 0.033 0.016 0.050 0.020 0 0 0.001 0 0.001 0 0.043 0.011 0.085 0.018 0.128 0.018 0 0 0.001 0 0.001 0 0.042 0 0.085-0.006 0.127-0.017 0.008-0.002 0.016-0.007 0.024-0.010 0.031-0.010 0.063-0.021 0.092-0.037l13.5-7.5c0.002-0.001 0.003-0.004 0.005-0.005 0.005-0.003 0.010-0.003 0.015-0.006 0.046-0.029 0.084-0.066 0.118-0.106 0.009-0.010 0.016-0.021 0.023-0.032 0.030-0.042 0.054-0.087 0.069-0.136 0.002-0.006 0.005-0.012 0.007-0.019 0.012-0.043 0.020-0.087 0.020-0.133v-15c0-0.003-0.002-0.006-0.002-0.010-0.001-0.055-0.014-0.108-0.032-0.158-0.006-0.018-0.013-0.034-0.021-0.051-0.020-0.041-0.046-0.078-0.076-0.112-0.008-0.008-0.012-0.018-0.020-0.026-0.035-0.034-0.073-0.063-0.117-0.086l-13.5-7c-0.021-0.011-0.043-0.016-0.064-0.023-0.012-0.004-0.024-0.009-0.036-0.013-0.048-0.013-0.098-0.021-0.147-0.020zM16.5 2.322l11.898 6.169-4.891 2.446-7.008-3.737v-4.878zM15.5 2.338v4.862l-6.997 3.731-4.453-2.429 11.45-6.165zM16 8.067l6.438 3.433-6.438 3.433-6.438-3.433 6.438-3.433zM29 9.31v13.382l-5-2.5v-8.383l5-2.499zM3.5 9.343l4.5 2.454v1.203c0 0.277 0.224 0.5 0.5 0.5s0.5-0.223 0.5-0.5v-0.666l6.5 3.466v7.866l-6.5-3.466v-1.2c0-0.276-0.224-0.5-0.5-0.5s-0.5 0.224-0.5 0.5v1.203l-4.5 2.454v-13.314zM23 12.334v8.166c0 0.025 0.010 0.046 0.014 0.070 0.005 0.036 0.009 0.072 0.021 0.105 0.011 0.030 0.030 0.055 0.047 0.082s0.032 0.055 0.054 0.079c0.024 0.026 0.054 0.045 0.083 0.065 0.020 0.014 0.035 0.034 0.058 0.045l5.152 2.576-11.929 6.627v-14.351l6.5-3.466zM8.5 14.5c-0.276 0-0.5 0.223-0.5 0.5v2c0 0.276 0.224 0.5 0.5 0.5s0.5-0.224 0.5-0.5v-2c0-0.277-0.224-0.5-0.5-0.5zM21.554 20.449c-0.065 0.006-0.129 0.025-0.19 0.058-0.244 0.13-0.337 0.432-0.206 0.676l0.471 0.883c0.090 0.169 0.263 0.265 0.441 0.265 0.079 0 0.16-0.019 0.235-0.059 0.244-0.13 0.336-0.433 0.205-0.677l-0.471-0.883c-0.098-0.182-0.291-0.28-0.485-0.263zM8.502 21.068l6.998 3.731v5.335l-11.479-6.623 4.481-2.443zM19.47 21.561c-0.065 0.006-0.129 0.024-0.19 0.057-0.244 0.13-0.336 0.433-0.206 0.677l0.471 0.883c0.090 0.169 0.264 0.265 0.442 0.265 0.079 0 0.159-0.019 0.234-0.059 0.244-0.13 0.336-0.433 0.206-0.677l-0.471-0.883c-0.098-0.182-0.292-0.28-0.486-0.263zM17.387 22.671c-0.065 0.006-0.129 0.025-0.19 0.058-0.244 0.13-0.336 0.433-0.206 0.677l0.471 0.882c0.090 0.169 0.263 0.265 0.441 0.265 0.079 0 0.16-0.019 0.235-0.059 0.244-0.13 0.336-0.433 0.205-0.677l-0.471-0.883c-0.097-0.182-0.291-0.28-0.485-0.263z"></path>
</symbol>
<symbol id="icon-email" viewBox="0 0 43 32">
<path d="M37.333 0h-32c-2.2 0-3.98 1.8-3.98 4l-0.020 24c0 2.2 1.8 4 4 4h32c2.2 0 4-1.8 4-4v-24c0-2.2-1.8-4-4-4zM36.533 8.5l-14.14 8.84c-0.64 0.4-1.48 0.4-2.12 0l-14.14-8.84c-0.5-0.32-0.8-0.86-0.8-1.44 0-1.34 1.46-2.14 2.6-1.44l13.4 8.38 13.4-8.38c1.14-0.7 2.6 0.1 2.6 1.44 0 0.58-0.3 1.12-0.8 1.44z"></path>
</symbol>
<symbol id="icon-phone" viewBox="0 0 32 32">
<path d="M24.882 19.773l-3.268-0.373c-0.785-0.090-1.557 0.18-2.11 0.733l-2.367 2.367c-3.641-1.853-6.626-4.825-8.478-8.478l2.38-2.38c0.553-0.553 0.823-1.325 0.733-2.11l-0.373-3.242c-0.154-1.299-1.248-2.277-2.56-2.277h-2.226c-1.454 0-2.663 1.209-2.573 2.663 0.682 10.987 9.469 19.761 20.443 20.443 1.454 0.090 2.663-1.119 2.663-2.573v-2.226c0.013-1.3-0.965-2.393-2.264-2.547z"></path>
</symbol>
<symbol id="icon-telegram" viewBox="0 0 32 32">
<path d="M16 0c-8.838 0-16 7.162-16 16s7.162 16 16 16 16-7.163 16-16-7.163-16-16-16zM23.863 10.969l-2.625 12.369c-0.181 0.881-0.712 1.087-1.45 0.681l-4-2.956-1.919 1.869c-0.225 0.219-0.4 0.4-0.8 0.4-0.519 0-0.431-0.194-0.606-0.688l-1.363-4.475-3.956-1.231c-0.856-0.262-0.862-0.85 0.194-1.269l15.412-5.95c0.7-0.319 1.381 0.169 1.113 1.25z"></path>
</symbol>
<symbol id="icon-arrow-right" viewBox="0 0 32 32">
<path d="M19.414 27.414l10-10c0.781-0.781 0.781-2.047 0-2.828l-10-10c-0.781-0.781-2.047-0.781-2.828 0s-0.781 2.047 0 2.828l6.586 6.586h-19.172c-1.105 0-2 0.895-2 2s0.895 2 2 2h19.172l-6.586 6.586c-0.39 0.39-0.586 0.902-0.586 1.414s0.195 1.024 0.586 1.414c0.781 0.781 2.047 0.781 2.828 0z"></path>
</symbol>
<symbol id="icon-arrow-left" viewBox="0 0 32 32">
<path d="M12.586 27.414l-10-10c-0.781-0.781-0.781-2.047 0-2.828l10-10c0.781-0.781 2.047-0.781 2.828 0s0.781 2.047 0 2.828l-6.586 6.586h19.172c1.105 0 2 0.895 2 2s-0.895 2-2 2h-19.172l6.586 6.586c0.39 0.39 0.586 0.902 0.586 1.414s-0.195 1.024-0.586 1.414c-0.781 0.781-2.047 0.781-2.828 0z"></path>
</symbol>
</defs>
</svg>
